<svg width="75" height="75" viewBox="0 0 75 75" fill="none" xmlns="http://www.w3.org/2000/svg">
<path d="M14.857 24.5098C15.1969 25.1016 15.9529 25.3057 16.5447 24.9657L20.8288 22.4924C21.42 22.1513 21.6229 21.3947 21.2811 20.8035L18.1895 15.4476C17.8483 14.8558 17.0917 14.6535 16.5006 14.9947L12.2164 17.468C11.6253 17.8098 11.4224 18.5657 11.7642 19.1575L14.857 24.5098ZM16.6685 17.7524L18.5234 20.9678L16.3816 22.2044L14.5267 18.989L16.6685 17.7524Z" fill="#87E389"/>
<path d="M18.8525 26.4857L20.9943 25.2491L22.2309 27.3914L20.0885 28.6275L18.8525 26.4857Z" fill="#87E389"/>
<path d="M45.4943 13.8351C46.0564 14.16 46.6941 14.3309 47.3432 14.3296C47.6692 14.3309 47.9935 14.2892 48.3087 14.2065C49.2609 13.9529 50.0719 13.3297 50.5622 12.4747L51.1805 11.4041C52.2046 9.62825 51.5959 7.35847 49.8201 6.33378C48.0442 5.30908 45.7744 5.91834 44.7497 7.6942L44.1314 8.76478C43.6393 9.61799 43.5065 10.6318 43.7619 11.5828C44.0173 12.5339 44.6411 13.3442 45.4943 13.8351V13.8351ZM46.2798 10.0014L46.8982 8.93083C47.1113 8.53412 47.5243 8.28474 47.9748 8.27991C48.4252 8.27568 48.8431 8.51661 49.0641 8.9097C49.2857 9.30219 49.2754 9.78404 49.0387 10.1675L48.4204 11.2381C48.0786 11.828 47.3245 12.0309 46.7333 11.6909C46.1416 11.3498 45.9381 10.5932 46.2798 10.0014Z" fill="#87E389"/>
<path d="M41.9509 17.4972L43.1875 15.3554L45.3293 16.592L44.0933 18.7338L41.9509 17.4972Z" fill="#87E389"/>
<path d="M74.4565 16.9434C74.0381 15.356 73.0001 14.0028 71.5751 13.1864L59.239 6.06377C58.2342 3.87552 56.0514 2.46982 53.644 2.46016H52.9961L50.1593 0.821387C47.459 -0.729831 44.0257 -0.0275864 42.1508 2.46016H39.1686C37.2949 -0.0263787 33.864 -0.729831 31.1637 0.818972L28.2267 2.51209C26.5143 2.70048 24.9594 3.60017 23.9432 4.99138L23.4263 5.28906L22.11 4.53127C20.6922 3.70886 19.0058 3.48484 17.4219 3.90873C15.8387 4.33201 14.4886 5.36816 13.6704 6.78835L10.0843 12.9962L9.74918 13.1864C7.72758 14.3506 6.53866 16.5576 6.67814 18.8859L1.30534 28.2029C0.481121 29.6231 0.255896 31.3126 0.679174 32.8994C1.10245 34.4856 2.13922 35.8388 3.56061 36.66L18.6628 45.3786C18.8729 47.3416 20.0069 49.0873 21.7157 50.0775L22.7283 50.6638V53.1618C22.7326 56.5746 25.4987 59.3408 28.9115 59.345H29.2617L29.7453 60.1843C30.5605 61.6093 31.9137 62.6473 33.5011 63.0657C34.0252 63.2064 34.5656 63.2783 35.1085 63.2783C36.1905 63.2777 37.2533 62.9903 38.188 62.445L40.6612 61.0182L43.1327 62.4365C43.312 62.5404 43.4968 62.6243 43.6821 62.7095C42.5506 65.6211 42.5947 68.8576 43.8059 71.7372L44.8173 74.1845H47.4983L46.0739 70.7771C45.0643 68.3763 45.0776 65.6676 46.1107 63.2771C46.1518 63.2771 46.191 63.2861 46.2345 63.2861C47.0672 63.2825 47.8908 63.1092 48.6546 62.7777C47.5375 65.6718 47.5871 68.8866 48.7917 71.7457L49.8206 74.1845H52.5052L51.0645 70.7771C49.7457 67.6614 50.1793 64.0789 52.2039 61.3678C52.5728 60.8757 52.5239 60.1867 52.0885 59.7514L43.4322 51.095C42.2106 49.8692 42.2106 47.8863 43.4322 46.6605C44.6742 45.4782 46.6252 45.4782 47.8666 46.6605L58.9963 57.7901L60.7449 56.0415L59.5729 54.8695C59.7384 54.3151 59.8241 53.7403 59.8271 53.1618V49.9278C60.8421 49.2865 61.6464 48.3603 62.1386 47.2655C63.8383 49.2726 64.7718 51.8171 64.7736 54.448V74.1845H67.2469V54.448C67.2493 51.1662 66.0628 47.9956 63.9084 45.5205L62.6397 43.9922C62.563 43.3045 62.3686 42.6348 62.0643 42.0135L73.831 21.6279C74.6588 20.2131 74.884 18.5254 74.4565 16.9434V16.9434ZM25.2016 8.64329C25.1992 8.27677 25.2517 7.91206 25.3562 7.56124C25.4667 7.22431 25.6218 6.90429 25.8175 6.60902C26.472 5.60124 27.5764 4.97568 28.7768 4.93341C28.8221 4.931 28.8668 4.931 28.9115 4.93341H40.6322L35.0674 14.5789C35.0559 14.5058 35.0372 14.4333 35.0119 14.3639L32.5386 8.18076C32.3514 7.71039 31.8961 7.40183 31.3901 7.40183C30.8835 7.40183 30.4283 7.71039 30.2411 8.18076L27.7678 14.3639C27.6144 14.7443 27.6597 15.1766 27.8892 15.5166C28.118 15.8571 28.5015 16.0618 28.9115 16.0631H33.858C33.9914 16.0606 34.1236 16.0359 34.2492 15.9912L32.6213 18.8104V18.5363H30.1481V21.0096H31.3527L25.2016 31.6652V8.64329ZM32.032 13.5898H30.738L31.3847 11.9722L32.032 13.5898ZM15.8109 8.02498C16.3019 7.17299 17.1116 6.55165 18.0614 6.29805C19.0112 6.04444 20.0232 6.17849 20.8734 6.67181L20.9501 6.7165L14.3738 10.5091L15.8109 8.02498ZM18.972 42.7025L4.79724 34.5195C3.02019 33.4924 2.41154 31.2196 3.43743 29.4419L7.71007 22.0294L10.4092 26.7114C8.95274 26.549 7.53919 27.267 6.81219 28.5392L5.57556 30.681C5.41132 30.966 5.36785 31.3041 5.45359 31.6217C5.53994 31.9387 5.74886 32.2086 6.03386 32.3717L11.3886 35.4632C11.9803 35.8044 12.7369 35.6009 13.078 35.0092L14.1402 33.1705L19.1151 41.7997C19.135 41.8414 19.1561 41.8825 19.1797 41.9229L19.2461 42.0346C19.1416 42.2508 19.0498 42.4736 18.972 42.7012V42.7025ZM10.6495 29.3242L11.7213 29.9425C12.313 30.2843 12.5153 31.0402 12.1741 31.632L11.5558 32.7032L8.34046 30.8482L8.95878 29.777C9.29994 29.1865 10.0553 28.9836 10.6471 29.3242H10.6495ZM9.62902 20.3912C9.39292 19.9867 9.23412 19.5417 9.16045 19.0791L9.15321 19.0073C8.95938 17.5261 9.67793 16.0745 10.9731 15.3306L11.6041 14.9719C11.6518 14.9448 11.6977 14.9146 11.7412 14.8808L22.7362 8.54064C22.7362 8.57506 22.7283 8.60706 22.7283 8.64208V35.9493L20.662 39.5276L9.62902 20.3912ZM28.9115 56.8717C26.8627 56.8717 25.2016 55.2106 25.2016 53.1618V52.0919L33.4872 56.8717H28.9115ZM36.9495 60.3032C35.344 61.2422 33.2892 60.8298 32.1691 59.345H37.7647L38.188 59.5919L36.9495 60.3032ZM57.3539 52.6498L56.4475 51.7435C56.459 51.726 56.4723 51.7085 56.4838 51.6903L57.349 50.1814L57.3539 52.6498ZM59.8271 46.3785V45.8955L60.1622 45.314C60.1061 45.6841 59.9926 46.0428 59.8271 46.3785ZM71.6916 20.3912L59.5802 41.3644L59.5482 41.4211L54.6349 49.9362L49.6105 44.9118C47.4204 42.7218 43.8687 42.7218 41.6787 44.9118C39.4886 47.1025 39.4886 50.6536 41.6787 52.8436L48.6818 59.8456C47.4977 60.9282 45.7466 61.1124 44.3633 60.3008L22.9463 47.9346C21.7803 47.2595 21.0708 46.0066 21.0914 44.66C21.0992 44.0297 21.2701 43.4125 21.5859 42.8679L43.8452 4.31631C44.8729 2.53986 47.1451 1.93121 48.9227 2.9559L70.3427 15.3222C71.1953 15.8137 71.8172 16.6246 72.0702 17.5762C72.3238 18.5272 72.1874 19.5405 71.6916 20.3912Z" fill="#87E389"/>
<path d="M53.3753 21.5801C53.1731 21.0047 52.5813 20.6629 51.9817 20.7752L42.3073 22.5855C40.4053 22.9411 38.9253 24.444 38.5986 26.3515C38.2726 28.2596 39.1686 30.1689 40.8448 31.1368L41.3062 31.4037C42.0591 31.8348 42.9184 32.0455 43.7855 32.0123C42.6768 32.9072 41.3943 33.5617 40.02 33.9349C39.5364 34.0647 39.1789 34.4723 39.1137 34.968C39.0485 35.4644 39.2888 35.9504 39.7217 36.2004L46.1524 39.9103C46.3408 40.0184 46.5534 40.0745 46.7708 40.0751C47.1548 40.0751 47.5171 39.8964 47.7514 39.5915C47.985 39.2866 48.0641 38.8904 47.9651 38.5191C47.601 37.1424 47.5267 35.7047 47.7477 34.2972C48.1517 35.0652 48.7634 35.7029 49.5133 36.1388L49.9746 36.4057C51.6508 37.3761 53.7545 37.1991 55.2448 35.9619C56.7356 34.7247 57.2972 32.6898 56.6523 30.8632L53.3753 21.5801ZM45.1495 36.4776L43.1931 35.3521C43.9255 34.9759 44.6199 34.5303 45.2666 34.0206C45.1483 34.834 45.109 35.657 45.1495 36.4776ZM54.1458 33.4766C53.5499 34.5037 52.2353 34.8551 51.2064 34.2628L50.7463 33.9971C50.378 33.7851 50.0809 33.4681 49.8931 33.0865L48.3709 30.0101C48.3383 29.9539 48.3014 29.9008 48.2604 29.8506C48.2326 29.8041 48.2018 29.7601 48.168 29.7184C47.9983 29.533 47.7767 29.4038 47.5322 29.3471C47.4947 29.3416 47.4573 29.3392 47.4199 29.3386C47.3414 29.3235 47.2623 29.3169 47.1826 29.3187L43.7516 29.5403C43.3278 29.5662 42.9057 29.4672 42.5374 29.2559L42.076 28.9896C41.2977 28.5385 40.8823 27.6509 41.0338 26.7645C41.1854 25.8775 41.8726 25.1789 42.7565 25.0116L51.3906 23.3964L54.3064 31.682C54.5178 32.275 54.4592 32.9307 54.1458 33.4766V33.4766Z" fill="#87E389"/>
</svg>
