<?xml version="1.0" encoding="utf-8"?><svg width="117" height="110" viewBox="0 0 117 110" xmlns="http://www.w3.org/2000/svg" xmlns:xlink="http://www.w3.org/1999/xlink"><svg width="100" height="30" fill="none" viewBox="0 0 100 30" id="label-new" y="30" xmlns="http://www.w3.org/2000/svg"><path d="M99.766 0v30h-99l6.853-15L.766 0h99z" fill="url(#apaint0_linear)"/><path d="M26.673 20h-1.73l-4.436-7.062V20h-1.73v-9.953h1.73l4.45 7.089v-7.09h1.716V20zm5.14.137c-1.052 0-1.907-.33-2.563-.992-.652-.665-.977-1.549-.977-2.652v-.205c0-.738.14-1.397.423-1.976a3.27 3.27 0 011.203-1.36 3.172 3.172 0 011.723-.485c1.007 0 1.784.321 2.331.964.552.642.827 1.551.827 2.727v.67h-4.833c.05.61.253 1.094.609 1.45.36.355.81.533 1.353.533.761 0 1.381-.308 1.86-.923l.895.854a3.012 3.012 0 01-1.19 1.032 3.721 3.721 0 01-1.66.363zm-.198-6.337c-.455 0-.825.16-1.107.478-.278.32-.456.764-.533 1.333h3.165v-.123c-.037-.556-.185-.975-.445-1.258-.26-.287-.62-.43-1.08-.43zm10.958 3.91l1.176-5.107h1.62L43.352 20h-1.367L40.4 14.92 38.841 20h-1.367l-2.024-7.396h1.62l1.197 5.051 1.517-5.052h1.251l1.538 5.107zm7.103-1.463c0-1.148.269-2.064.806-2.748.543-.688 1.26-1.032 2.154-1.032.843 0 1.506.294 1.989.882l.075-.745h1.497v7.17c0 .971-.303 1.737-.909 2.297-.601.56-1.415.841-2.44.841a3.928 3.928 0 01-1.593-.342c-.515-.223-.907-.517-1.176-.881l.786-.999c.51.607 1.14.91 1.887.91.551 0 .987-.15 1.306-.452.319-.296.478-.733.478-1.312v-.5c-.478.534-1.116.8-1.914.8-.866 0-1.575-.343-2.126-1.031-.547-.689-.82-1.641-.82-2.858zm1.654.144c0 .743.15 1.328.451 1.757.306.423.727.635 1.265.635.67 0 1.167-.287 1.49-.861v-3.254c-.314-.56-.806-.84-1.476-.84-.547 0-.973.216-1.279.649-.3.432-.45 1.07-.45 1.914zm11 3.609c-.074-.141-.138-.371-.192-.69a2.586 2.586 0 01-1.942.827c-.743 0-1.349-.212-1.818-.636a2.034 2.034 0 01-.704-1.572c0-.789.291-1.392.875-1.812.588-.424 1.426-.636 2.516-.636h1.018v-.485c0-.383-.107-.688-.321-.916-.215-.232-.54-.349-.978-.349-.378 0-.688.096-.93.288a.869.869 0 00-.362.717h-1.66c0-.405.133-.784.402-1.134a2.677 2.677 0 011.094-.834c.465-.2.982-.301 1.552-.301.866 0 1.556.218 2.071.656.515.433.78 1.044.793 1.832v3.336c0 .665.094 1.196.28 1.593V20H62.33zm-1.826-1.196c.328 0 .636-.08.923-.24.291-.16.51-.373.656-.642v-1.395h-.895c-.616 0-1.078.107-1.388.322-.31.214-.465.517-.465.909 0 .319.105.574.314.765.215.187.5.28.855.28zm6.542-6.2l.048.772c.52-.606 1.23-.91 2.133-.91.989 0 1.665.38 2.03 1.136.538-.757 1.294-1.135 2.27-1.135.815 0 1.421.225 1.818.677.4.45.606 1.116.615 1.996V20h-1.661v-4.813c0-.469-.103-.813-.308-1.032-.205-.218-.544-.328-1.018-.328-.379 0-.689.103-.93.308-.237.2-.403.465-.5.793L71.552 20H69.89v-4.867c-.023-.87-.468-1.306-1.333-1.306-.666 0-1.137.271-1.415.814V20H65.48v-7.396h1.565zm13.877 7.533c-1.053 0-1.907-.33-2.564-.992-.651-.665-.977-1.549-.977-2.652v-.205c0-.738.141-1.397.424-1.976a3.27 3.27 0 011.203-1.36 3.172 3.172 0 011.722-.485c1.008 0 1.785.321 2.332.964.55.642.827 1.551.827 2.727v.67h-4.833c.05.61.253 1.094.608 1.45.36.355.811.533 1.354.533.76 0 1.38-.308 1.859-.923l.895.854a3.011 3.011 0 01-1.189 1.032 3.721 3.721 0 01-1.661.363zm-.198-6.337c-.456 0-.825.16-1.108.478-.278.32-.456.764-.533 1.333h3.165v-.123c-.036-.556-.185-.975-.444-1.258-.26-.287-.62-.43-1.08-.43z" fill="#fff"/><path d="M99.766 0v30h-99l6.853-15L.766 0h99z" fill="url(#apaint1_linear)"/><path d="M26.673 20h-1.73l-4.436-7.062V20h-1.73v-9.953h1.73l4.45 7.089v-7.09h1.716V20zm5.14.137c-1.052 0-1.907-.33-2.563-.992-.652-.665-.977-1.549-.977-2.652v-.205c0-.738.14-1.397.423-1.976a3.27 3.27 0 011.203-1.36 3.172 3.172 0 011.723-.485c1.007 0 1.784.321 2.331.964.552.642.827 1.551.827 2.727v.67h-4.833c.05.61.253 1.094.609 1.45.36.355.81.533 1.353.533.761 0 1.381-.308 1.86-.923l.895.854a3.012 3.012 0 01-1.19 1.032 3.721 3.721 0 01-1.66.363zm-.198-6.337c-.455 0-.825.16-1.107.478-.278.32-.456.764-.533 1.333h3.165v-.123c-.037-.556-.185-.975-.445-1.258-.26-.287-.62-.43-1.08-.43zm10.958 3.91l1.176-5.107h1.62L43.352 20h-1.367L40.4 14.92 38.841 20h-1.367l-2.024-7.396h1.62l1.197 5.051 1.517-5.052h1.251l1.538 5.107zm7.103-1.463c0-1.148.269-2.064.806-2.748.543-.688 1.26-1.032 2.154-1.032.843 0 1.506.294 1.989.882l.075-.745h1.497v7.17c0 .971-.303 1.737-.909 2.297-.601.56-1.415.841-2.44.841a3.928 3.928 0 01-1.593-.342c-.515-.223-.907-.517-1.176-.881l.786-.999c.51.607 1.14.91 1.887.91.551 0 .987-.15 1.306-.452.319-.296.478-.733.478-1.312v-.5c-.478.534-1.116.8-1.914.8-.866 0-1.575-.343-2.126-1.031-.547-.689-.82-1.641-.82-2.858zm1.654.144c0 .743.15 1.328.451 1.757.306.423.727.635 1.265.635.67 0 1.167-.287 1.49-.861v-3.254c-.314-.56-.806-.84-1.476-.84-.547 0-.973.216-1.279.649-.3.432-.45 1.07-.45 1.914zm11 3.609c-.074-.141-.138-.371-.192-.69a2.586 2.586 0 01-1.942.827c-.743 0-1.349-.212-1.818-.636a2.034 2.034 0 01-.704-1.572c0-.789.291-1.392.875-1.812.588-.424 1.426-.636 2.516-.636h1.018v-.485c0-.383-.107-.688-.321-.916-.215-.232-.54-.349-.978-.349-.378 0-.688.096-.93.288a.869.869 0 00-.362.717h-1.66c0-.405.133-.784.402-1.134a2.677 2.677 0 011.094-.834c.465-.2.982-.301 1.552-.301.866 0 1.556.218 2.071.656.515.433.78 1.044.793 1.832v3.336c0 .665.094 1.196.28 1.593V20H62.33zm-1.826-1.196c.328 0 .636-.08.923-.24.291-.16.51-.373.656-.642v-1.395h-.895c-.616 0-1.078.107-1.388.322-.31.214-.465.517-.465.909 0 .319.105.574.314.765.215.187.5.28.855.28zm6.542-6.2l.048.772c.52-.606 1.23-.91 2.133-.91.989 0 1.665.38 2.03 1.136.538-.757 1.294-1.135 2.27-1.135.815 0 1.421.225 1.818.677.4.45.606 1.116.615 1.996V20h-1.661v-4.813c0-.469-.103-.813-.308-1.032-.205-.218-.544-.328-1.018-.328-.379 0-.689.103-.93.308-.237.2-.403.465-.5.793L71.552 20H69.89v-4.867c-.023-.87-.468-1.306-1.333-1.306-.666 0-1.137.271-1.415.814V20H65.48v-7.396h1.565zm13.877 7.533c-1.053 0-1.907-.33-2.564-.992-.651-.665-.977-1.549-.977-2.652v-.205c0-.738.141-1.397.424-1.976a3.27 3.27 0 011.203-1.36 3.172 3.172 0 011.722-.485c1.008 0 1.785.321 2.332.964.55.642.827 1.551.827 2.727v.67h-4.833c.05.61.253 1.094.608 1.45.36.355.811.533 1.354.533.76 0 1.38-.308 1.859-.923l.895.854a3.011 3.011 0 01-1.189 1.032 3.721 3.721 0 01-1.661.363zm-.198-6.337c-.456 0-.825.16-1.108.478-.278.32-.456.764-.533 1.333h3.165v-.123c-.036-.556-.185-.975-.444-1.258-.26-.287-.62-.43-1.08-.43z" fill="#fff"/><defs><linearGradient id="apaint0_linear" x1="99.766" y1="15" x2=".766" y2="15" gradientUnits="userSpaceOnUse"><stop stop-color="#1D1269"/><stop offset=".271" stop-color="#EB0255"/></linearGradient><linearGradient id="apaint1_linear" x1="99.766" y1="15" x2=".766" y2="15" gradientUnits="userSpaceOnUse"><stop stop-color="#1D1269"/><stop offset=".271" stop-color="#EB0255"/></linearGradient></defs></svg><svg width="48" height="20" fill="none" viewBox="0 0 48 20" id="label-new-sm" x="68" y="60" xmlns="http://www.w3.org/2000/svg"><path d="M48 0v20H0l4.708-10L0 0h48z" fill="url(#bpaint0_linear)"/><path d="M18.907 15h-1.73l-4.436-7.062V15h-1.73V5.047h1.73l4.45 7.089v-7.09h1.716V15zm5.14.137c-1.052 0-1.906-.33-2.563-.992-.651-.665-.977-1.549-.977-2.652v-.205c0-.738.141-1.397.424-1.976a3.27 3.27 0 011.203-1.36 3.172 3.172 0 011.722-.485c1.008 0 1.785.321 2.331.964.552.642.828 1.551.828 2.727v.67h-4.833c.05.61.253 1.094.608 1.45.36.355.811.532 1.354.532.76 0 1.38-.307 1.859-.922l.895.854a3.011 3.011 0 01-1.189 1.032 3.721 3.721 0 01-1.661.363zM23.85 8.8c-.456 0-.825.16-1.108.478-.278.32-.456.764-.533 1.333h3.165v-.123c-.036-.556-.184-.975-.444-1.258-.26-.287-.62-.43-1.08-.43zm10.958 3.91l1.175-5.106h1.62L35.587 15H34.22l-1.586-5.08L31.075 15h-1.367l-2.023-7.396h1.62l1.196 5.051 1.518-5.051h1.25l1.539 5.106z" fill="#fff"/><defs><linearGradient id="bpaint0_linear" x1="48" y1="10" x2="-20" y2="10" gradientUnits="userSpaceOnUse"><stop stop-color="#1D1269"/><stop offset=".271" stop-color="#EB0255"/></linearGradient></defs></svg><svg width="68" height="30" fill="none" viewBox="0 0 68 30" id="label-popular" y="60" xmlns="http://www.w3.org/2000/svg"><path d="M68 0v30H0l4.708-15L0 0h68z" fill="url(#cpaint0_linear)"/><path d="M12.741 16.302V20h-1.73v-9.953h3.808c1.112 0 1.994.29 2.646.868.656.579.984 1.344.984 2.297 0 .975-.321 1.734-.964 2.276-.638.543-1.533.814-2.686.814H12.74zm0-1.388h2.078c.616 0 1.085-.143 1.408-.43.324-.292.486-.711.486-1.258 0-.538-.164-.967-.492-1.286-.328-.323-.78-.49-1.354-.499h-2.126v3.473zm6.658 1.32c0-.725.144-1.377.431-1.956a3.12 3.12 0 011.21-1.34c.52-.314 1.117-.471 1.791-.471.998 0 1.807.321 2.427.964.624.642.961 1.495 1.012 2.556l.006.39c0 .73-.14 1.38-.424 1.955a3.08 3.08 0 01-1.203 1.333c-.52.315-1.12.472-1.804.472-1.044 0-1.88-.347-2.51-1.04-.623-.697-.936-1.624-.936-2.782v-.082zm1.662.143c0 .761.157 1.358.471 1.791.315.428.752.643 1.313.643.56 0 .995-.22 1.305-.657.315-.437.472-1.078.472-1.92 0-.748-.162-1.34-.485-1.778-.32-.437-.755-.656-1.306-.656-.542 0-.973.216-1.292.65-.319.428-.479 1.07-.479 1.927zm13.097 0c0 1.144-.26 2.058-.78 2.741-.519.68-1.216 1.019-2.09 1.019-.812 0-1.462-.267-1.95-.8v3.507h-1.66v-10.24h1.531l.068.752c.488-.593 1.151-.89 1.99-.89.902 0 1.608.338 2.119 1.013.515.67.772 1.601.772 2.795v.103zm-1.654-.144c0-.738-.148-1.324-.444-1.756-.292-.433-.711-.65-1.258-.65-.68 0-1.167.28-1.463.841v3.281c.3.574.793.861 1.476.861.53 0 .941-.211 1.238-.635.3-.429.45-1.076.45-1.942zm7.547 3.042c-.488.575-1.18.862-2.078.862-.802 0-1.41-.235-1.825-.704-.41-.47-.616-1.149-.616-2.038v-4.791h1.661v4.771c0 .939.39 1.408 1.17 1.408.806 0 1.35-.29 1.633-.868v-5.311h1.661V20h-1.565l-.041-.725zm5.065.725h-1.66V9.5h1.66V20zm6.235 0c-.073-.141-.137-.371-.192-.69a2.586 2.586 0 01-1.941.827c-.743 0-1.35-.212-1.819-.636a2.034 2.034 0 01-.704-1.572c0-.789.292-1.392.875-1.812.588-.424 1.427-.636 2.516-.636h1.019v-.485c0-.383-.108-.688-.322-.916-.214-.232-.54-.349-.977-.349-.379 0-.688.096-.93.288a.869.869 0 00-.362.717h-1.662c0-.405.135-.784.404-1.134a2.677 2.677 0 011.094-.834c.465-.2.982-.301 1.551-.301.866 0 1.557.218 2.072.656.515.433.779 1.044.793 1.832v3.336c0 .665.093 1.196.28 1.593V20H51.35zm-1.826-1.196c.328 0 .636-.08.923-.24.292-.16.51-.373.657-.642v-1.395h-.896c-.615 0-1.078.107-1.388.322-.31.214-.465.517-.465.909 0 .319.105.574.315.765.214.187.499.28.854.28zm8.853-4.683a4.105 4.105 0 00-.677-.055c-.76 0-1.274.292-1.538.875V20h-1.661v-7.396h1.586l.04.827c.402-.643.958-.964 1.669-.964.237 0 .433.032.588.095l-.007 1.56z" fill="#fff"/><defs><linearGradient id="cpaint0_linear" x1="68" y1="15" x2="0" y2="15" gradientUnits="userSpaceOnUse"><stop stop-color="#1D1269"/><stop offset=".271" stop-color="#EB0255"/></linearGradient></defs></svg><svg width="64" height="20" fill="none" viewBox="0 0 64 20" id="label-popular-sm" y="90" xmlns="http://www.w3.org/2000/svg"><path d="M64 0v20H.5l4.708-10L.5 0H64z" fill="url(#dpaint0_linear)"/><path d="M11.741 11.302V15h-1.73V5.047h3.808c1.112 0 1.994.29 2.646.868.656.579.984 1.344.984 2.297 0 .975-.321 1.734-.964 2.276-.638.543-1.533.814-2.686.814H11.74zm0-1.388h2.078c.616 0 1.085-.143 1.408-.43.324-.292.486-.712.486-1.258 0-.538-.164-.967-.492-1.286-.328-.323-.78-.49-1.354-.499h-2.126v3.473zm6.658 1.32c0-.725.144-1.377.431-1.956a3.12 3.12 0 011.21-1.34c.52-.314 1.117-.471 1.791-.471.998 0 1.807.321 2.427.964.624.642.961 1.494 1.012 2.556l.006.39c0 .73-.14 1.38-.424 1.955a3.08 3.08 0 01-1.203 1.333c-.52.315-1.12.472-1.804.472-1.044 0-1.88-.347-2.51-1.04-.623-.697-.936-1.624-.936-2.782v-.082zm1.662.143c0 .761.157 1.358.471 1.791.315.428.752.643 1.313.643.56 0 .995-.22 1.305-.657.315-.437.472-1.078.472-1.92 0-.748-.162-1.34-.485-1.778-.32-.437-.755-.656-1.306-.656-.542 0-.973.216-1.292.65-.319.428-.479 1.07-.479 1.927zm13.097 0c0 1.144-.26 2.058-.78 2.741-.519.68-1.216 1.019-2.09 1.019-.812 0-1.462-.267-1.95-.8v3.507h-1.66V7.604h1.531l.068.751c.488-.592 1.151-.888 1.99-.888.902 0 1.608.337 2.119 1.012.515.67.772 1.601.772 2.795v.103zm-1.654-.144c0-.738-.148-1.324-.444-1.756-.292-.433-.711-.65-1.258-.65-.68 0-1.167.28-1.463.841v3.281c.3.574.793.861 1.476.861.53 0 .941-.211 1.238-.635.3-.429.45-1.076.45-1.942zm7.547 3.042c-.488.575-1.18.862-2.078.862-.802 0-1.41-.235-1.825-.704-.41-.47-.616-1.149-.616-2.037V7.604h1.661v4.771c0 .939.39 1.408 1.17 1.408.806 0 1.35-.29 1.633-.868V7.604h1.661V15h-1.565l-.041-.725zm5.065.725h-1.66V4.5h1.66V15zm6.235 0c-.073-.141-.137-.371-.192-.69a2.586 2.586 0 01-1.941.827c-.743 0-1.35-.212-1.819-.636a2.034 2.034 0 01-.704-1.572c0-.789.292-1.393.875-1.812.588-.424 1.427-.636 2.516-.636h1.019v-.485c0-.383-.108-.688-.322-.916-.214-.232-.54-.349-.977-.349-.379 0-.688.096-.93.288a.869.869 0 00-.362.717h-1.662c0-.405.135-.784.404-1.134a2.677 2.677 0 011.094-.834c.465-.2.982-.301 1.551-.301.866 0 1.557.219 2.072.656.515.433.779 1.044.793 1.832v3.336c0 .665.093 1.196.28 1.593V15H50.35zm-1.826-1.196c.328 0 .636-.08.923-.24.292-.16.51-.373.657-.642v-1.395h-.896c-.615 0-1.078.107-1.388.322-.31.214-.465.517-.465.909 0 .319.105.574.315.765.214.187.499.28.854.28zm8.853-4.683a4.11 4.11 0 00-.677-.055c-.76 0-1.274.292-1.538.875V15h-1.661V7.604h1.586l.04.827c.402-.643.958-.964 1.669-.964.237 0 .433.032.588.096l-.007 1.558z" fill="#fff"/><defs><linearGradient id="dpaint0_linear" x1="64" y1="10" x2="-4" y2="10" gradientUnits="userSpaceOnUse"><stop stop-color="#1D1269"/><stop offset=".271" stop-color="#EB0255"/></linearGradient></defs></svg><svg width="117" height="30" fill="none" viewBox="0 0 117 30" id="label-recommends" xmlns="http://www.w3.org/2000/svg"><path d="M116.766 0v30H0l6.854-15L0 0h116.766z" fill="url(#epaint0_linear)"/><path d="M23.669 16.165H21.74V20h-1.73v-9.953h3.5c1.15 0 2.036.257 2.66.772.624.515.936 1.26.936 2.236 0 .665-.161 1.223-.485 1.675-.319.446-.766.79-1.34 1.032l2.236 4.15V20h-1.853l-1.996-3.835zm-1.928-1.388h1.778c.583 0 1.039-.145 1.367-.437.328-.296.492-.7.492-1.21 0-.533-.153-.946-.458-1.237-.3-.292-.752-.443-1.354-.452h-1.825v3.336zm10.104 5.36c-1.053 0-1.907-.33-2.564-.992-.651-.665-.977-1.549-.977-2.652v-.205c0-.738.141-1.397.424-1.976a3.27 3.27 0 011.203-1.36 3.172 3.172 0 011.722-.485c1.008 0 1.785.321 2.331.964.552.642.828 1.551.828 2.727v.67h-4.833c.05.61.252 1.094.608 1.45.36.355.811.533 1.353.533.762 0 1.381-.308 1.86-.923l.895.854a3.011 3.011 0 01-1.19 1.032 3.721 3.721 0 01-1.66.363zm-.198-6.337c-.456 0-.825.16-1.108.478-.278.32-.456.764-.533 1.333h3.165v-.123c-.037-.556-.185-.975-.444-1.258-.26-.287-.62-.43-1.08-.43zm7.498 5.01c.415 0 .76-.12 1.033-.362.273-.241.419-.54.437-.895h1.566c-.019.46-.162.89-.431 1.292a2.836 2.836 0 01-1.094.943 3.26 3.26 0 01-1.49.349c-1.034 0-1.855-.335-2.46-1.005-.607-.67-.91-1.595-.91-2.776v-.17c0-1.126.3-2.026.902-2.7.602-.68 1.422-1.02 2.461-1.02.88 0 1.595.258 2.147.773.556.51.847 1.183.875 2.017h-1.566c-.018-.424-.164-.773-.437-1.046-.27-.274-.613-.41-1.032-.41-.538 0-.953.196-1.245.588-.291.387-.44.977-.444 1.77v.267c0 .802.144 1.401.43 1.798.292.392.712.588 1.258.588zm3.979-2.577c0-.724.144-1.376.43-1.955a3.12 3.12 0 011.21-1.34c.52-.314 1.117-.471 1.792-.471.998 0 1.807.321 2.426.964.625.642.962 1.495 1.012 2.556l.007.39c0 .73-.141 1.38-.424 1.955a3.078 3.078 0 01-1.203 1.333c-.52.315-1.121.472-1.805.472-1.043 0-1.88-.347-2.509-1.04-.624-.697-.936-1.624-.936-2.782v-.082zm1.661.144c0 .761.157 1.358.472 1.791.314.428.752.643 1.312.643s.996-.22 1.306-.657c.315-.437.472-1.078.472-1.92 0-.748-.162-1.34-.486-1.778-.319-.437-.754-.656-1.305-.656-.543 0-.973.216-1.292.65-.32.428-.479 1.07-.479 1.927zm8.183-3.773l.048.772c.52-.606 1.23-.91 2.132-.91.99 0 1.666.38 2.03 1.136.539-.757 1.295-1.135 2.27-1.135.816 0 1.422.225 1.819.677.4.45.606 1.116.615 1.996V20H60.22v-4.813c0-.469-.103-.813-.308-1.032-.205-.218-.544-.328-1.018-.328-.379 0-.689.103-.93.308-.237.2-.404.465-.5.793L57.474 20h-1.661v-4.867c-.023-.87-.468-1.306-1.334-1.306-.665 0-1.136.271-1.415.814V20h-1.66v-7.396h1.565zm12.181 0l.048.772c.52-.606 1.23-.91 2.133-.91.989 0 1.666.38 2.03 1.136.538-.757 1.295-1.135 2.27-1.135.816 0 1.422.225 1.818.677.401.45.606 1.116.616 1.996V20h-1.662v-4.813c0-.469-.102-.813-.307-1.032-.205-.218-.545-.328-1.019-.328-.378 0-.688.103-.93.308-.237.2-.403.465-.499.793L69.654 20h-1.66v-4.867c-.024-.87-.468-1.306-1.334-1.306-.665 0-1.137.271-1.415.814V20h-1.661v-7.396h1.565zm13.877 7.533c-1.052 0-1.907-.33-2.563-.992-.652-.665-.978-1.549-.978-2.652v-.205c0-.738.142-1.397.424-1.976a3.27 3.27 0 011.203-1.36 3.172 3.172 0 011.723-.485c1.007 0 1.784.321 2.331.964.551.642.827 1.551.827 2.727v.67H77.16c.05.61.253 1.094.609 1.45.36.355.81.533 1.353.533.761 0 1.38-.308 1.86-.923l.895.854a3.011 3.011 0 01-1.19 1.032 3.721 3.721 0 01-1.66.363zm-.198-6.337c-.456 0-.825.16-1.107.478-.278.32-.456.764-.534 1.333h3.166v-.123c-.037-.556-.185-.975-.445-1.258-.26-.287-.62-.43-1.08-.43zm6.002-1.197l.048.855c.547-.66 1.265-.991 2.153-.991 1.54 0 2.325.882 2.352 2.645V20h-1.661v-4.792c0-.47-.103-.816-.308-1.04-.2-.227-.53-.34-.991-.34-.67 0-1.17.302-1.497.908V20h-1.661v-7.396h1.565zm5.94 3.644c0-1.14.265-2.053.794-2.741.528-.693 1.237-1.04 2.125-1.04.784 0 1.418.274 1.9.821V9.5h1.662V20h-1.504l-.082-.766c-.497.602-1.16.903-1.99.903-.865 0-1.567-.349-2.105-1.046-.533-.697-.8-1.645-.8-2.844zm1.662.144c0 .752.143 1.34.43 1.763.292.42.704.63 1.238.63.679 0 1.175-.304 1.49-.91v-3.158c-.306-.593-.798-.889-1.477-.889-.537 0-.952.214-1.244.643-.291.424-.437 1.064-.437 1.92zm10.698 1.6a.751.751 0 00-.369-.677c-.242-.155-.645-.292-1.21-.41-.565-.12-1.037-.27-1.415-.452-.83-.4-1.244-.982-1.244-1.743 0-.638.269-1.171.806-1.6.538-.428 1.222-.642 2.051-.642.884 0 1.597.218 2.14.656.547.438.82 1.005.82 1.702h-1.661c0-.319-.119-.583-.356-.793-.237-.214-.551-.321-.943-.321-.365 0-.663.084-.895.253a.8.8 0 00-.342.677c0 .255.107.453.321.594.214.142.647.285 1.299.431.652.141 1.162.312 1.531.513.374.196.649.433.827.71.183.279.274.616.274 1.012 0 .666-.276 1.206-.827 1.62-.552.41-1.274.616-2.167.616-.607 0-1.147-.11-1.621-.328-.474-.22-.843-.52-1.107-.903a2.136 2.136 0 01-.397-1.237h1.614c.023.392.171.695.444.91.274.209.636.314 1.087.314.438 0 .77-.082.998-.247a.781.781 0 00.342-.656z" fill="#fff"/><defs><linearGradient id="epaint0_linear" x1="116.766" y1="15" x2="17.766" y2="15" gradientUnits="userSpaceOnUse"><stop stop-color="#1D1269"/><stop offset=".271" stop-color="#EB0255"/></linearGradient></defs></svg></svg>