<svg width="100" height="30" viewBox="0 0 100 30" fill="none" xmlns="http://www.w3.org/2000/svg">
<path d="M99.7656 0L99.7656 30L0.765626 30L7.61947 15L0.765627 -4.32743e-06L99.7656 0Z" fill="url(#paint0_linear)"/>
<path d="M26.6729 20H24.9434L20.5068 12.9385L20.5068 20H18.7773L18.7773 10.0469L20.5068 10.0469L24.957 17.1357L24.957 10.0469H26.6729L26.6729 20ZM31.8135 20.1367C30.7607 20.1367 29.9062 19.8063 29.25 19.1455C28.5983 18.4801 28.2725 17.596 28.2725 16.4932V16.2881C28.2725 15.5498 28.4137 14.8913 28.6963 14.3125C28.9834 13.7292 29.3844 13.2757 29.8994 12.9521C30.4144 12.6286 30.9886 12.4668 31.6221 12.4668C32.6292 12.4668 33.4062 12.7881 33.9531 13.4307C34.5046 14.0732 34.7803 14.9824 34.7803 16.1582V16.8281L29.9473 16.8281C29.9974 17.4388 30.2002 17.9219 30.5557 18.2773C30.9157 18.6328 31.3669 18.8105 31.9092 18.8105C32.6702 18.8105 33.29 18.5029 33.7686 17.8877L34.6641 18.7422C34.3678 19.1842 33.9714 19.5283 33.4746 19.7744C32.9824 20.0159 32.4287 20.1367 31.8135 20.1367ZM31.6152 13.7998C31.1595 13.7998 30.7904 13.9593 30.5078 14.2783C30.2298 14.5973 30.0521 15.0417 29.9746 15.6113L33.1396 15.6113V15.4883C33.1032 14.9323 32.9551 14.513 32.6953 14.2305C32.4355 13.9434 32.0755 13.7998 31.6152 13.7998ZM42.5732 17.71L43.749 12.6035L45.3691 12.6035L43.3525 20H41.9854L40.3994 14.9209L38.8408 20L37.4736 20L35.4502 12.6035L37.0703 12.6035L38.2666 17.6553L39.7842 12.6035L41.0352 12.6035L42.5732 17.71ZM49.6758 16.2471C49.6758 15.0986 49.9447 14.1826 50.4824 13.499C51.0247 12.8109 51.7425 12.4668 52.6357 12.4668C53.4788 12.4668 54.1419 12.7607 54.625 13.3486L54.7002 12.6035L56.1973 12.6035L56.1973 19.7744C56.1973 20.7451 55.8942 21.5107 55.2881 22.0713C54.6865 22.6318 53.873 22.9121 52.8477 22.9121C52.3053 22.9121 51.7744 22.7982 51.2549 22.5703C50.7399 22.347 50.348 22.0531 50.0791 21.6885L50.8652 20.6904C51.3756 21.2965 52.0046 21.5996 52.752 21.5996C53.3034 21.5996 53.7386 21.4492 54.0576 21.1484C54.3766 20.8522 54.5361 20.4147 54.5361 19.8359V19.3369C54.0576 19.8701 53.4196 20.1367 52.6221 20.1367C51.7562 20.1367 51.0475 19.7926 50.4961 19.1045C49.9492 18.4163 49.6758 17.4639 49.6758 16.2471ZM51.3301 16.3906C51.3301 17.1335 51.4805 17.7191 51.7812 18.1475C52.0866 18.5713 52.5081 18.7832 53.0459 18.7832C53.7158 18.7832 54.2126 18.4961 54.5361 17.9219V14.668C54.2217 14.1074 53.7295 13.8271 53.0596 13.8271C52.5127 13.8271 52.0866 14.0436 51.7812 14.4766C51.4805 14.9095 51.3301 15.5475 51.3301 16.3906ZM62.3291 20C62.2562 19.8587 62.1924 19.6286 62.1377 19.3096C61.609 19.861 60.9619 20.1367 60.1963 20.1367C59.4534 20.1367 58.8473 19.9248 58.3779 19.501C57.9085 19.0771 57.6738 18.5531 57.6738 17.9287C57.6738 17.1403 57.9655 16.5365 58.5488 16.1172C59.1367 15.6934 59.9753 15.4814 61.0645 15.4814H62.083V14.9961C62.083 14.6133 61.9759 14.3079 61.7617 14.0801C61.5475 13.8477 61.2217 13.7314 60.7842 13.7314C60.4059 13.7314 60.096 13.8271 59.8545 14.0186C59.613 14.2054 59.4922 14.4447 59.4922 14.7363L57.8311 14.7363C57.8311 14.3307 57.9655 13.9525 58.2344 13.6016C58.5033 13.2461 58.8678 12.9681 59.3281 12.7676C59.793 12.5671 60.3102 12.4668 60.8799 12.4668C61.7458 12.4668 62.4362 12.6855 62.9512 13.123C63.4661 13.556 63.7305 14.1667 63.7441 14.9551V18.291C63.7441 18.9564 63.8376 19.4873 64.0244 19.8838V20L62.3291 20ZM60.5039 18.8037C60.832 18.8037 61.1396 18.724 61.4268 18.5645C61.7184 18.4049 61.9372 18.1908 62.083 17.9219V16.5273H61.1875C60.5723 16.5273 60.1097 16.6344 59.7998 16.8486C59.4899 17.0628 59.335 17.3659 59.335 17.7578C59.335 18.0768 59.4398 18.332 59.6494 18.5234C59.8636 18.7103 60.1484 18.8037 60.5039 18.8037ZM67.0459 12.6035L67.0937 13.376C67.6133 12.7699 68.3242 12.4668 69.2266 12.4668C70.2155 12.4668 70.8922 12.8451 71.2568 13.6016C71.7946 12.8451 72.5511 12.4668 73.5264 12.4668C74.3421 12.4668 74.9482 12.6924 75.3447 13.1436C75.7458 13.5947 75.9508 14.2601 75.96 15.1396L75.96 20H74.2988L74.2988 15.1875C74.2988 14.7181 74.1963 14.374 73.9912 14.1553C73.7861 13.9365 73.4466 13.8271 72.9727 13.8271C72.5944 13.8271 72.2845 13.9297 72.043 14.1348C71.806 14.3353 71.6396 14.5996 71.5439 14.9277L71.5508 20L69.8896 20L69.8896 15.1328C69.8669 14.2624 69.4225 13.8271 68.5566 13.8271C67.8913 13.8271 67.4196 14.0983 67.1416 14.6406L67.1416 20H65.4805L65.4805 12.6035H67.0459ZM80.9228 20.1367C79.8701 20.1367 79.0156 19.8063 78.3594 19.1455C77.7077 18.4801 77.3818 17.596 77.3818 16.4932V16.2881C77.3818 15.5498 77.5231 14.8913 77.8057 14.3125C78.0928 13.7292 78.4938 13.2757 79.0088 12.9521C79.5238 12.6286 80.098 12.4668 80.7314 12.4668C81.7386 12.4668 82.5156 12.7881 83.0625 13.4307C83.6139 14.0732 83.8896 14.9824 83.8896 16.1582V16.8281H79.0566C79.1068 17.4388 79.3096 17.9219 79.665 18.2773C80.0251 18.6328 80.4762 18.8105 81.0186 18.8105C81.7796 18.8105 82.3994 18.5029 82.8779 17.8877L83.7734 18.7422C83.4772 19.1842 83.0807 19.5283 82.584 19.7744C82.0918 20.0159 81.5381 20.1367 80.9228 20.1367ZM80.7246 13.7998C80.2689 13.7998 79.8997 13.9593 79.6172 14.2783C79.3392 14.5973 79.1615 15.0417 79.084 15.6113L82.249 15.6113V15.4883C82.2126 14.9323 82.0644 14.513 81.8047 14.2305C81.5449 13.9434 81.1849 13.7998 80.7246 13.7998Z" fill="white"/>
<path d="M99.7656 0L99.7656 30L0.765626 30L7.61947 15L0.765627 -4.32743e-06L99.7656 0Z" fill="url(#paint1_linear)"/>
<path d="M26.6729 20H24.9434L20.5068 12.9385L20.5068 20H18.7773L18.7773 10.0469L20.5068 10.0469L24.957 17.1357L24.957 10.0469H26.6729L26.6729 20ZM31.8135 20.1367C30.7607 20.1367 29.9062 19.8063 29.25 19.1455C28.5983 18.4801 28.2725 17.596 28.2725 16.4932V16.2881C28.2725 15.5498 28.4137 14.8913 28.6963 14.3125C28.9834 13.7292 29.3844 13.2757 29.8994 12.9521C30.4144 12.6286 30.9886 12.4668 31.6221 12.4668C32.6292 12.4668 33.4062 12.7881 33.9531 13.4307C34.5046 14.0732 34.7803 14.9824 34.7803 16.1582V16.8281L29.9473 16.8281C29.9974 17.4388 30.2002 17.9219 30.5557 18.2773C30.9157 18.6328 31.3669 18.8105 31.9092 18.8105C32.6702 18.8105 33.29 18.5029 33.7686 17.8877L34.6641 18.7422C34.3678 19.1842 33.9714 19.5283 33.4746 19.7744C32.9824 20.0159 32.4287 20.1367 31.8135 20.1367ZM31.6152 13.7998C31.1595 13.7998 30.7904 13.9593 30.5078 14.2783C30.2298 14.5973 30.0521 15.0417 29.9746 15.6113L33.1396 15.6113V15.4883C33.1032 14.9323 32.9551 14.513 32.6953 14.2305C32.4355 13.9434 32.0755 13.7998 31.6152 13.7998ZM42.5732 17.71L43.749 12.6035L45.3691 12.6035L43.3525 20H41.9854L40.3994 14.9209L38.8408 20L37.4736 20L35.4502 12.6035L37.0703 12.6035L38.2666 17.6553L39.7842 12.6035L41.0352 12.6035L42.5732 17.71ZM49.6758 16.2471C49.6758 15.0986 49.9447 14.1826 50.4824 13.499C51.0247 12.8109 51.7425 12.4668 52.6357 12.4668C53.4788 12.4668 54.1419 12.7607 54.625 13.3486L54.7002 12.6035L56.1973 12.6035L56.1973 19.7744C56.1973 20.7451 55.8942 21.5107 55.2881 22.0713C54.6865 22.6318 53.873 22.9121 52.8477 22.9121C52.3053 22.9121 51.7744 22.7982 51.2549 22.5703C50.7399 22.347 50.348 22.0531 50.0791 21.6885L50.8652 20.6904C51.3756 21.2965 52.0046 21.5996 52.752 21.5996C53.3034 21.5996 53.7386 21.4492 54.0576 21.1484C54.3766 20.8522 54.5361 20.4147 54.5361 19.8359V19.3369C54.0576 19.8701 53.4196 20.1367 52.6221 20.1367C51.7562 20.1367 51.0475 19.7926 50.4961 19.1045C49.9492 18.4163 49.6758 17.4639 49.6758 16.2471ZM51.3301 16.3906C51.3301 17.1335 51.4805 17.7191 51.7812 18.1475C52.0866 18.5713 52.5081 18.7832 53.0459 18.7832C53.7158 18.7832 54.2126 18.4961 54.5361 17.9219V14.668C54.2217 14.1074 53.7295 13.8271 53.0596 13.8271C52.5127 13.8271 52.0866 14.0436 51.7812 14.4766C51.4805 14.9095 51.3301 15.5475 51.3301 16.3906ZM62.3291 20C62.2562 19.8587 62.1924 19.6286 62.1377 19.3096C61.609 19.861 60.9619 20.1367 60.1963 20.1367C59.4534 20.1367 58.8473 19.9248 58.3779 19.501C57.9085 19.0771 57.6738 18.5531 57.6738 17.9287C57.6738 17.1403 57.9655 16.5365 58.5488 16.1172C59.1367 15.6934 59.9753 15.4814 61.0645 15.4814H62.083V14.9961C62.083 14.6133 61.9759 14.3079 61.7617 14.0801C61.5475 13.8477 61.2217 13.7314 60.7842 13.7314C60.4059 13.7314 60.096 13.8271 59.8545 14.0186C59.613 14.2054 59.4922 14.4447 59.4922 14.7363L57.8311 14.7363C57.8311 14.3307 57.9655 13.9525 58.2344 13.6016C58.5033 13.2461 58.8678 12.9681 59.3281 12.7676C59.793 12.5671 60.3102 12.4668 60.8799 12.4668C61.7458 12.4668 62.4362 12.6855 62.9512 13.123C63.4661 13.556 63.7305 14.1667 63.7441 14.9551V18.291C63.7441 18.9564 63.8376 19.4873 64.0244 19.8838V20L62.3291 20ZM60.5039 18.8037C60.832 18.8037 61.1396 18.724 61.4268 18.5645C61.7184 18.4049 61.9372 18.1908 62.083 17.9219V16.5273H61.1875C60.5723 16.5273 60.1097 16.6344 59.7998 16.8486C59.4899 17.0628 59.335 17.3659 59.335 17.7578C59.335 18.0768 59.4398 18.332 59.6494 18.5234C59.8636 18.7103 60.1484 18.8037 60.5039 18.8037ZM67.0459 12.6035L67.0937 13.376C67.6133 12.7699 68.3242 12.4668 69.2266 12.4668C70.2155 12.4668 70.8922 12.8451 71.2568 13.6016C71.7946 12.8451 72.5511 12.4668 73.5264 12.4668C74.3421 12.4668 74.9482 12.6924 75.3447 13.1436C75.7458 13.5947 75.9508 14.2601 75.96 15.1396L75.96 20H74.2988L74.2988 15.1875C74.2988 14.7181 74.1963 14.374 73.9912 14.1553C73.7861 13.9365 73.4466 13.8271 72.9727 13.8271C72.5944 13.8271 72.2845 13.9297 72.043 14.1348C71.806 14.3353 71.6396 14.5996 71.5439 14.9277L71.5508 20L69.8896 20L69.8896 15.1328C69.8669 14.2624 69.4225 13.8271 68.5566 13.8271C67.8913 13.8271 67.4196 14.0983 67.1416 14.6406L67.1416 20H65.4805L65.4805 12.6035H67.0459ZM80.9228 20.1367C79.8701 20.1367 79.0156 19.8063 78.3594 19.1455C77.7077 18.4801 77.3818 17.596 77.3818 16.4932V16.2881C77.3818 15.5498 77.5231 14.8913 77.8057 14.3125C78.0928 13.7292 78.4938 13.2757 79.0088 12.9521C79.5238 12.6286 80.098 12.4668 80.7314 12.4668C81.7386 12.4668 82.5156 12.7881 83.0625 13.4307C83.6139 14.0732 83.8896 14.9824 83.8896 16.1582V16.8281H79.0566C79.1068 17.4388 79.3096 17.9219 79.665 18.2773C80.0251 18.6328 80.4762 18.8105 81.0186 18.8105C81.7796 18.8105 82.3994 18.5029 82.8779 17.8877L83.7734 18.7422C83.4772 19.1842 83.0807 19.5283 82.584 19.7744C82.0918 20.0159 81.5381 20.1367 80.9228 20.1367ZM80.7246 13.7998C80.2689 13.7998 79.8997 13.9593 79.6172 14.2783C79.3392 14.5973 79.1615 15.0417 79.084 15.6113L82.249 15.6113V15.4883C82.2126 14.9323 82.0644 14.513 81.8047 14.2305C81.5449 13.9434 81.1849 13.7998 80.7246 13.7998Z" fill="white"/>
<defs>
<linearGradient id="paint0_linear" x1="99.7656" y1="15" x2="0.765624" y2="15" gradientUnits="userSpaceOnUse">
<stop stop-color="#1D1269"/>
<stop offset="0.270718" stop-color="#EB0255"/>
</linearGradient>
<linearGradient id="paint1_linear" x1="99.7656" y1="15" x2="0.765624" y2="15" gradientUnits="userSpaceOnUse">
<stop stop-color="#1D1269"/>
<stop offset="0.270718" stop-color="#EB0255"/>
</linearGradient>
</defs>
</svg>
