<svg width="68" height="30" viewBox="0 0 68 30" fill="none" xmlns="http://www.w3.org/2000/svg">
<path d="M68 0L68 30L-5.00683e-06 30L4.70769 15L-3.69549e-06 -2.97237e-06L68 0Z" fill="url(#paint0_linear)"/>
<path d="M12.7412 16.3018L12.7412 20H11.0117L11.0117 10.0469L14.8193 10.0469C15.9313 10.0469 16.8132 10.3363 17.4648 10.915C18.1211 11.4938 18.4492 12.2594 18.4492 13.2119C18.4492 14.1872 18.1279 14.946 17.4854 15.4883C16.8473 16.0306 15.9518 16.3018 14.7988 16.3018L12.7412 16.3018ZM12.7412 14.9141H14.8193C15.4346 14.9141 15.904 14.7705 16.2275 14.4834C16.5511 14.1917 16.7129 13.7725 16.7129 13.2256C16.7129 12.6878 16.5488 12.2594 16.2207 11.9404C15.8926 11.6169 15.4414 11.4505 14.8672 11.4414H12.7412L12.7412 14.9141ZM19.3994 16.2334C19.3994 15.5088 19.543 14.8571 19.8301 14.2783C20.1172 13.695 20.5205 13.2484 21.04 12.9385C21.5596 12.624 22.1566 12.4668 22.8311 12.4668C23.8291 12.4668 24.638 12.7881 25.2578 13.4307C25.8822 14.0732 26.2194 14.9255 26.2695 15.9873L26.2764 16.377C26.2764 17.1061 26.1351 17.7578 25.8525 18.332C25.5745 18.9062 25.1735 19.3506 24.6494 19.665C24.1299 19.9795 23.5283 20.1367 22.8447 20.1367C21.8011 20.1367 20.9648 19.7904 20.3359 19.0977C19.7116 18.4004 19.3994 17.473 19.3994 16.3154V16.2334ZM21.0605 16.377C21.0605 17.138 21.2178 17.735 21.5322 18.168C21.8467 18.5964 22.2842 18.8105 22.8447 18.8105C23.4053 18.8105 23.8405 18.5918 24.1504 18.1543C24.4648 17.7168 24.6221 17.0765 24.6221 16.2334C24.6221 15.486 24.4603 14.8936 24.1367 14.4561C23.8177 14.0186 23.3825 13.7998 22.8311 13.7998C22.2887 13.7998 21.8581 14.0163 21.5391 14.4492C21.2201 14.8776 21.0605 15.5202 21.0605 16.377ZM34.1582 16.377C34.1582 17.5208 33.8984 18.4346 33.3789 19.1182C32.8594 19.7972 32.1621 20.1367 31.2871 20.1367C30.4759 20.1367 29.8265 19.8701 29.3389 19.3369L29.3389 22.8437L27.6777 22.8437L27.6777 12.6035L29.209 12.6035L29.2773 13.3555C29.765 12.763 30.4281 12.4668 31.2666 12.4668C32.1689 12.4668 32.8753 12.804 33.3857 13.4785C33.9007 14.1484 34.1582 15.0804 34.1582 16.2744V16.377ZM32.5039 16.2334C32.5039 15.4951 32.3558 14.9095 32.0596 14.4766C31.7679 14.0436 31.3486 13.8271 30.8018 13.8271C30.1227 13.8271 29.6351 14.1074 29.3389 14.668L29.3389 17.9492C29.6396 18.5234 30.1318 18.8105 30.8154 18.8105C31.3441 18.8105 31.7565 18.5986 32.0527 18.1748C32.3535 17.7464 32.5039 17.0993 32.5039 16.2334ZM40.0508 19.2754C39.5631 19.8496 38.8704 20.1367 37.9727 20.1367C37.1706 20.1367 36.5622 19.902 36.1475 19.4326C35.7373 18.9632 35.5322 18.2842 35.5322 17.3955L35.5322 12.6035L37.1934 12.6035L37.1934 17.375C37.1934 18.3138 37.583 18.7832 38.3623 18.7832C39.1689 18.7832 39.7135 18.4938 39.9961 17.915L39.9961 12.6035L41.6572 12.6035L41.6572 20H40.0918L40.0508 19.2754ZM45.1162 20L43.4551 20L43.4551 9.5L45.1162 9.5L45.1162 20ZM51.3506 20C51.2777 19.8587 51.2139 19.6286 51.1592 19.3096C50.6305 19.861 49.9834 20.1367 49.2178 20.1367C48.4749 20.1367 47.8688 19.9248 47.3994 19.501C46.93 19.0771 46.6953 18.5531 46.6953 17.9287C46.6953 17.1403 46.987 16.5365 47.5703 16.1172C48.1582 15.6934 48.9967 15.4814 50.0859 15.4814L51.1045 15.4814V14.9961C51.1045 14.6133 50.9974 14.3079 50.7832 14.0801C50.569 13.8477 50.2432 13.7314 49.8057 13.7314C49.4274 13.7314 49.1175 13.8271 48.876 14.0186C48.6344 14.2054 48.5137 14.4447 48.5137 14.7363L46.8525 14.7363C46.8525 14.3307 46.987 13.9525 47.2559 13.6016C47.5247 13.2461 47.8893 12.9681 48.3496 12.7676C48.8145 12.5671 49.3317 12.4668 49.9014 12.4668C50.7673 12.4668 51.4577 12.6855 51.9727 13.123C52.4876 13.556 52.752 14.1667 52.7656 14.9551V18.291C52.7656 18.9564 52.859 19.4873 53.0459 19.8838V20L51.3506 20ZM49.5254 18.8037C49.8535 18.8037 50.1611 18.724 50.4482 18.5645C50.7399 18.4049 50.9587 18.1908 51.1045 17.9219V16.5273H50.209C49.5937 16.5273 49.1312 16.6344 48.8213 16.8486C48.5114 17.0628 48.3564 17.3659 48.3564 17.7578C48.3564 18.0768 48.4613 18.332 48.6709 18.5234C48.8851 18.7103 49.1699 18.8037 49.5254 18.8037ZM58.3779 14.1211C58.1592 14.0846 57.9336 14.0664 57.7012 14.0664C56.9401 14.0664 56.4274 14.3581 56.1631 14.9414L56.1631 20L54.502 20L54.502 12.6035L56.0879 12.6035L56.1289 13.4307C56.5299 12.7881 57.0859 12.4668 57.7969 12.4668C58.0339 12.4668 58.2298 12.4987 58.3848 12.5625L58.3779 14.1211Z" fill="white"/>
<defs>
<linearGradient id="paint0_linear" x1="68" y1="15" x2="-6.55671e-07" y2="15" gradientUnits="userSpaceOnUse">
<stop stop-color="#1D1269"/>
<stop offset="0.270718" stop-color="#EB0255"/>
</linearGradient>
</defs>
</svg>
