<svg width="64" height="20" viewBox="0 0 64 20" fill="none" xmlns="http://www.w3.org/2000/svg">
<path d="M64 0L64 20L0.499999 20L5.20769 10L0.5 0L64 0Z" fill="url(#paint0_linear)"/>
<path d="M11.7412 11.3018L11.7412 15H10.0117L10.0117 5.04687L13.8193 5.04687C14.9313 5.04687 15.8132 5.33626 16.4648 5.91504C17.1211 6.49381 17.4492 7.25944 17.4492 8.21191C17.4492 9.18717 17.1279 9.94596 16.4854 10.4883C15.8473 11.0306 14.9518 11.3018 13.7988 11.3018L11.7412 11.3018ZM11.7412 9.91406H13.8193C14.4346 9.91406 14.904 9.77051 15.2275 9.4834C15.5511 9.19173 15.7129 8.77246 15.7129 8.22559C15.7129 7.68783 15.5488 7.25944 15.2207 6.94043C14.8926 6.61686 14.4414 6.45052 13.8672 6.44141L11.7412 6.44141L11.7412 9.91406ZM18.3994 11.2334C18.3994 10.5088 18.543 9.8571 18.8301 9.27832C19.1172 8.69499 19.5205 8.24837 20.04 7.93848C20.5596 7.62402 21.1566 7.4668 21.8311 7.4668C22.8291 7.4668 23.638 7.78809 24.2578 8.43066C24.8822 9.07324 25.2194 9.92546 25.2695 10.9873L25.2764 11.377C25.2764 12.1061 25.1351 12.7578 24.8525 13.332C24.5745 13.9062 24.1735 14.3506 23.6494 14.665C23.1299 14.9795 22.5283 15.1367 21.8447 15.1367C20.8011 15.1367 19.9648 14.7904 19.3359 14.0977C18.7116 13.4004 18.3994 12.473 18.3994 11.3154V11.2334ZM20.0605 11.377C20.0605 12.138 20.2178 12.735 20.5322 13.168C20.8467 13.5964 21.2842 13.8105 21.8447 13.8105C22.4053 13.8105 22.8405 13.5918 23.1504 13.1543C23.4648 12.7168 23.6221 12.0765 23.6221 11.2334C23.6221 10.486 23.4603 9.89355 23.1367 9.45605C22.8177 9.01855 22.3825 8.7998 21.8311 8.7998C21.2887 8.7998 20.8581 9.01628 20.5391 9.44922C20.2201 9.8776 20.0605 10.5202 20.0605 11.377ZM33.1582 11.377C33.1582 12.5208 32.8984 13.4346 32.3789 14.1182C31.8594 14.7972 31.1621 15.1367 30.2871 15.1367C29.4759 15.1367 28.8265 14.8701 28.3389 14.3369L28.3389 17.8437L26.6777 17.8437L26.6777 7.60352L28.209 7.60352L28.2773 8.35547C28.765 7.76302 29.4281 7.4668 30.2666 7.4668C31.1689 7.4668 31.8753 7.80404 32.3857 8.47852C32.9007 9.14844 33.1582 10.0804 33.1582 11.2744V11.377ZM31.5039 11.2334C31.5039 10.4951 31.3558 9.9095 31.0596 9.47656C30.7679 9.04362 30.3486 8.82715 29.8018 8.82715C29.1227 8.82715 28.6351 9.10742 28.3389 9.66797L28.3389 12.9492C28.6396 13.5234 29.1318 13.8105 29.8154 13.8105C30.3441 13.8105 30.7565 13.5986 31.0527 13.1748C31.3535 12.7464 31.5039 12.0993 31.5039 11.2334ZM39.0508 14.2754C38.5631 14.8496 37.8704 15.1367 36.9727 15.1367C36.1706 15.1367 35.5622 14.902 35.1475 14.4326C34.7373 13.9632 34.5322 13.2842 34.5322 12.3955L34.5322 7.60352L36.1934 7.60352L36.1934 12.375C36.1934 13.3138 36.583 13.7832 37.3623 13.7832C38.1689 13.7832 38.7135 13.4938 38.9961 12.915L38.9961 7.60352L40.6572 7.60352L40.6572 15L39.0918 15L39.0508 14.2754ZM44.1162 15L42.4551 15L42.4551 4.5L44.1162 4.5L44.1162 15ZM50.3506 15C50.2777 14.8587 50.2139 14.6286 50.1592 14.3096C49.6305 14.861 48.9834 15.1367 48.2178 15.1367C47.4749 15.1367 46.8688 14.9248 46.3994 14.501C45.93 14.0771 45.6953 13.5531 45.6953 12.9287C45.6953 12.1403 45.987 11.5365 46.5703 11.1172C47.1582 10.6934 47.9967 10.4814 49.0859 10.4814L50.1045 10.4814V9.99609C50.1045 9.61328 49.9974 9.30794 49.7832 9.08008C49.569 8.84766 49.2432 8.73144 48.8057 8.73144C48.4274 8.73144 48.1175 8.82715 47.876 9.01855C47.6344 9.2054 47.5137 9.44466 47.5137 9.73633L45.8525 9.73633C45.8525 9.33073 45.987 8.95247 46.2559 8.60156C46.5247 8.24609 46.8893 7.9681 47.3496 7.76758C47.8145 7.56706 48.3317 7.4668 48.9014 7.4668C49.7673 7.4668 50.4577 7.68555 50.9727 8.12305C51.4876 8.55599 51.752 9.16667 51.7656 9.95508V13.291C51.7656 13.9564 51.859 14.4873 52.0459 14.8838V15L50.3506 15ZM48.5254 13.8037C48.8535 13.8037 49.1611 13.724 49.4482 13.5645C49.7399 13.4049 49.9587 13.1908 50.1045 12.9219V11.5273L49.209 11.5273C48.5937 11.5273 48.1312 11.6344 47.8213 11.8486C47.5114 12.0628 47.3564 12.3659 47.3564 12.7578C47.3564 13.0768 47.4613 13.332 47.6709 13.5234C47.8851 13.7103 48.1699 13.8037 48.5254 13.8037ZM57.3779 9.12109C57.1592 9.08463 56.9336 9.06641 56.7012 9.06641C55.9401 9.06641 55.4274 9.35807 55.1631 9.94141L55.1631 15L53.502 15L53.502 7.60352L55.0879 7.60352L55.1289 8.43066C55.5299 7.78809 56.0859 7.4668 56.7969 7.4668C57.0339 7.4668 57.2298 7.4987 57.3848 7.5625L57.3779 9.12109Z" fill="white"/>
<defs>
<linearGradient id="paint0_linear" x1="64" y1="10" x2="-4.00002" y2="10" gradientUnits="userSpaceOnUse">
<stop stop-color="#1D1269"/>
<stop offset="0.270718" stop-color="#EB0255"/>
</linearGradient>
</defs>
</svg>
