<svg width="48" height="20" viewBox="0 0 48 20" fill="none" xmlns="http://www.w3.org/2000/svg">
<path d="M48 0L48 20L-8.74228e-07 20L4.70769 10L0 -6.99381e-07L48 0Z" fill="url(#paint0_linear)"/>
<path d="M18.9072 15H17.1777L12.7412 7.93848L12.7412 15H11.0117L11.0117 5.04687L12.7412 5.04687L17.1914 12.1357L17.1914 5.04687L18.9072 5.04687L18.9072 15ZM24.0479 15.1367C22.9951 15.1367 22.1406 14.8063 21.4844 14.1455C20.8327 13.4801 20.5068 12.596 20.5068 11.4932V11.2881C20.5068 10.5498 20.6481 9.89128 20.9307 9.3125C21.2178 8.72917 21.6188 8.27572 22.1338 7.95215C22.6488 7.62858 23.223 7.4668 23.8564 7.4668C24.8636 7.4668 25.6406 7.78809 26.1875 8.43066C26.7389 9.07324 27.0146 9.98242 27.0146 11.1582V11.8281L22.1816 11.8281C22.2318 12.4388 22.4346 12.9219 22.79 13.2773C23.1501 13.6328 23.6012 13.8105 24.1436 13.8105C24.9046 13.8105 25.5244 13.5029 26.0029 12.8877L26.8984 13.7422C26.6022 14.1842 26.2057 14.5283 25.709 14.7744C25.2168 15.0159 24.6631 15.1367 24.0479 15.1367ZM23.8496 8.7998C23.3939 8.7998 23.0247 8.95931 22.7422 9.27832C22.4642 9.59733 22.2865 10.0417 22.209 10.6113L25.374 10.6113V10.4883C25.3376 9.93229 25.1895 9.51302 24.9297 9.23047C24.6699 8.94336 24.3099 8.7998 23.8496 8.7998ZM34.8076 12.71L35.9834 7.60352L37.6035 7.60352L35.5869 15L34.2197 15L32.6338 9.9209L31.0752 15L29.708 15L27.6846 7.60352L29.3047 7.60352L30.501 12.6553L32.0186 7.60352L33.2695 7.60352L34.8076 12.71Z" fill="white"/>
<defs>
<linearGradient id="paint0_linear" x1="48" y1="10" x2="-20" y2="10" gradientUnits="userSpaceOnUse">
<stop stop-color="#1D1269"/>
<stop offset="0.270718" stop-color="#EB0255"/>
</linearGradient>
</defs>
</svg>
