<svg width="117" height="30" viewBox="0 0 117 30" fill="none" xmlns="http://www.w3.org/2000/svg">
<path d="M116.766 0L116.766 30L-1.31134e-06 30L6.85385 15L0 0L116.766 0Z" fill="url(#paint0_linear)"/>
<path d="M23.6689 16.165L21.7412 16.165L21.7412 20H20.0117L20.0117 10.0469L23.5117 10.0469C24.6602 10.0469 25.5465 10.3044 26.1709 10.8193C26.7952 11.3343 27.1074 12.0794 27.1074 13.0547C27.1074 13.7201 26.9456 14.2783 26.6221 14.7295C26.3031 15.1761 25.8564 15.5202 25.2822 15.7617L27.5176 19.9111L27.5176 20H25.665L23.6689 16.165ZM21.7412 14.7773H23.5186C24.1019 14.7773 24.5576 14.6315 24.8857 14.3398C25.2139 14.0436 25.3779 13.6403 25.3779 13.1299C25.3779 12.5967 25.2253 12.1842 24.9199 11.8926C24.6191 11.6009 24.168 11.4505 23.5664 11.4414H21.7412L21.7412 14.7773ZM31.8447 20.1367C30.792 20.1367 29.9375 19.8063 29.2812 19.1455C28.6296 18.4801 28.3037 17.596 28.3037 16.4932V16.2881C28.3037 15.5498 28.445 14.8913 28.7275 14.3125C29.0146 13.7292 29.4157 13.2757 29.9307 12.9521C30.4456 12.6286 31.0199 12.4668 31.6533 12.4668C32.6605 12.4668 33.4375 12.7881 33.9844 13.4307C34.5358 14.0732 34.8115 14.9824 34.8115 16.1582V16.8281L29.9785 16.8281C30.0286 17.4388 30.2314 17.9219 30.5869 18.2773C30.9469 18.6328 31.3981 18.8105 31.9404 18.8105C32.7015 18.8105 33.3213 18.5029 33.7998 17.8877L34.6953 18.7422C34.3991 19.1842 34.0026 19.5283 33.5059 19.7744C33.0137 20.0159 32.46 20.1367 31.8447 20.1367ZM31.6465 13.7998C31.1908 13.7998 30.8216 13.9593 30.5391 14.2783C30.2611 14.5973 30.0833 15.0417 30.0059 15.6113L33.1709 15.6113V15.4883C33.1344 14.9323 32.9863 14.513 32.7266 14.2305C32.4668 13.9434 32.1068 13.7998 31.6465 13.7998ZM39.1455 18.8105C39.5602 18.8105 39.9043 18.6898 40.1777 18.4482C40.4512 18.2067 40.597 17.9082 40.6152 17.5527H42.1807C42.1624 18.013 42.0189 18.4437 41.75 18.8447C41.4811 19.2412 41.1165 19.5557 40.6562 19.7881C40.196 20.0205 39.6992 20.1367 39.166 20.1367C38.1315 20.1367 37.3112 19.8018 36.7051 19.1318C36.099 18.4619 35.7959 17.5368 35.7959 16.3564V16.1855C35.7959 15.0599 36.0967 14.1598 36.6982 13.4854C37.2998 12.8063 38.1201 12.4668 39.1592 12.4668C40.0387 12.4668 40.7542 12.7243 41.3057 13.2393C41.8617 13.7497 42.1533 14.4219 42.1807 15.2559L40.6152 15.2559C40.597 14.832 40.4512 14.4834 40.1777 14.21C39.9089 13.9365 39.5648 13.7998 39.1455 13.7998C38.6077 13.7998 38.193 13.9958 37.9014 14.3877C37.6097 14.7751 37.4616 15.3652 37.457 16.1582V16.4248C37.457 17.2269 37.6006 17.8262 37.8877 18.2227C38.1794 18.6146 38.5986 18.8105 39.1455 18.8105ZM43.124 16.2334C43.124 15.5088 43.2676 14.8571 43.5547 14.2783C43.8418 13.695 44.2451 13.2484 44.7646 12.9385C45.2842 12.624 45.8812 12.4668 46.5557 12.4668C47.5537 12.4668 48.3626 12.7881 48.9824 13.4307C49.6068 14.0732 49.944 14.9255 49.9941 15.9873L50.001 16.377C50.001 17.1061 49.8597 17.7578 49.5771 18.332C49.2992 18.9062 48.8981 19.3506 48.374 19.665C47.8545 19.9795 47.2529 20.1367 46.5693 20.1367C45.5257 20.1367 44.6895 19.7904 44.0605 19.0977C43.4362 18.4004 43.124 17.473 43.124 16.3154V16.2334ZM44.7852 16.377C44.7852 17.138 44.9424 17.735 45.2568 18.168C45.5713 18.5964 46.0088 18.8105 46.5693 18.8105C47.1299 18.8105 47.5651 18.5918 47.875 18.1543C48.1895 17.7168 48.3467 17.0765 48.3467 16.2334C48.3467 15.486 48.1849 14.8936 47.8613 14.4561C47.5423 14.0186 47.1071 13.7998 46.5557 13.7998C46.0133 13.7998 45.5827 14.0163 45.2637 14.4492C44.9447 14.8776 44.7852 15.5202 44.7852 16.377ZM52.9678 12.6035L53.0156 13.376C53.5352 12.7699 54.2461 12.4668 55.1484 12.4668C56.1374 12.4668 56.8141 12.8451 57.1787 13.6016C57.7165 12.8451 58.473 12.4668 59.4482 12.4668C60.264 12.4668 60.8701 12.6924 61.2666 13.1436C61.6676 13.5947 61.8727 14.2601 61.8818 15.1396L61.8818 20H60.2207L60.2207 15.1875C60.2207 14.7181 60.1182 14.374 59.9131 14.1553C59.708 13.9365 59.3685 13.8271 58.8945 13.8271C58.5163 13.8271 58.2064 13.9297 57.9648 14.1348C57.7279 14.3353 57.5615 14.5996 57.4658 14.9277L57.4727 20L55.8115 20L55.8115 15.1328C55.7887 14.2624 55.3444 13.8271 54.4785 13.8271C53.8131 13.8271 53.3415 14.0983 53.0635 14.6406L53.0635 20H51.4023L51.4023 12.6035L52.9678 12.6035ZM65.1494 12.6035L65.1973 13.376C65.7168 12.7699 66.4277 12.4668 67.3301 12.4668C68.319 12.4668 68.9958 12.8451 69.3603 13.6016C69.8981 12.8451 70.6546 12.4668 71.6299 12.4668C72.4456 12.4668 73.0518 12.6924 73.4482 13.1436C73.8493 13.5947 74.0544 14.2601 74.0635 15.1396L74.0635 20H72.4023L72.4023 15.1875C72.4023 14.7181 72.2998 14.374 72.0947 14.1553C71.8896 13.9365 71.5501 13.8271 71.0762 13.8271C70.6979 13.8271 70.388 13.9297 70.1465 14.1348C69.9095 14.3353 69.7432 14.5996 69.6475 14.9277L69.6543 20H67.9932L67.9932 15.1328C67.9704 14.2624 67.526 13.8271 66.6602 13.8271C65.9948 13.8271 65.5231 14.0983 65.2451 14.6406L65.2451 20L63.584 20L63.584 12.6035L65.1494 12.6035ZM79.0264 20.1367C77.9736 20.1367 77.1191 19.8063 76.4629 19.1455C75.8112 18.4801 75.4853 17.596 75.4853 16.4932V16.2881C75.4853 15.5498 75.6266 14.8913 75.9092 14.3125C76.1963 13.7292 76.5973 13.2757 77.1123 12.9521C77.6273 12.6286 78.2015 12.4668 78.835 12.4668C79.8421 12.4668 80.6191 12.7881 81.166 13.4307C81.7174 14.0732 81.9932 14.9824 81.9932 16.1582V16.8281L77.1602 16.8281C77.2103 17.4388 77.4131 17.9219 77.7686 18.2773C78.1286 18.6328 78.5797 18.8105 79.1221 18.8105C79.8831 18.8105 80.5029 18.5029 80.9814 17.8877L81.8769 18.7422C81.5807 19.1842 81.1842 19.5283 80.6875 19.7744C80.1953 20.0159 79.6416 20.1367 79.0264 20.1367ZM78.8281 13.7998C78.3724 13.7998 78.0033 13.9593 77.7207 14.2783C77.4427 14.5973 77.265 15.0417 77.1875 15.6113L80.3525 15.6113V15.4883C80.3161 14.9323 80.168 14.513 79.9082 14.2305C79.6484 13.9434 79.2884 13.7998 78.8281 13.7998ZM84.8301 12.6035L84.8779 13.458C85.4248 12.7972 86.1426 12.4668 87.0312 12.4668C88.5716 12.4668 89.3555 13.3486 89.3828 15.1123V20L87.7217 20V15.208C87.7217 14.7386 87.6191 14.3923 87.4141 14.1689C87.2135 13.9411 86.8831 13.8271 86.4228 13.8271C85.7529 13.8271 85.2539 14.1302 84.9258 14.7363L84.9258 20H83.2646L83.2646 12.6035L84.8301 12.6035ZM90.7705 16.2471C90.7705 15.1077 91.0348 14.194 91.5635 13.5059C92.0921 12.8132 92.8008 12.4668 93.6894 12.4668C94.4733 12.4668 95.1068 12.7402 95.5898 13.2871V9.5L97.251 9.5L97.251 20L95.7471 20L95.665 19.2344C95.1683 19.8359 94.5052 20.1367 93.6758 20.1367C92.8099 20.1367 92.1081 19.7881 91.5703 19.0908C91.0371 18.3936 90.7705 17.4456 90.7705 16.2471ZM92.4316 16.3906C92.4316 17.1426 92.5752 17.7305 92.8623 18.1543C93.154 18.5736 93.5664 18.7832 94.0996 18.7832C94.7786 18.7832 95.2754 18.4801 95.5898 17.874L95.5898 14.7158C95.2845 14.1234 94.7923 13.8271 94.1133 13.8271C93.5755 13.8271 93.1608 14.0413 92.8691 14.4697C92.5775 14.8936 92.4316 15.5339 92.4316 16.3906ZM103.13 17.9902C103.13 17.694 103.007 17.4684 102.761 17.3135C102.519 17.1585 102.116 17.0218 101.551 16.9033C100.986 16.7848 100.514 16.6344 100.136 16.4521C99.3063 16.0511 98.8916 15.4701 98.8916 14.709C98.8916 14.071 99.1605 13.5378 99.6982 13.1094C100.236 12.681 100.92 12.4668 101.749 12.4668C102.633 12.4668 103.346 12.6855 103.889 13.123C104.436 13.5605 104.709 14.1279 104.709 14.8252L103.048 14.8252C103.048 14.5062 102.929 14.2419 102.692 14.0322C102.455 13.818 102.141 13.7109 101.749 13.7109C101.384 13.7109 101.086 13.7952 100.854 13.9639C100.626 14.1325 100.512 14.3581 100.512 14.6406C100.512 14.8958 100.619 15.0941 100.833 15.2354C101.047 15.3766 101.48 15.5202 102.132 15.666C102.784 15.8073 103.294 15.9782 103.663 16.1787C104.037 16.3747 104.312 16.6117 104.49 16.8896C104.673 17.1676 104.764 17.5049 104.764 17.9014C104.764 18.5667 104.488 19.1068 103.937 19.5215C103.385 19.9316 102.663 20.1367 101.77 20.1367C101.163 20.1367 100.623 20.0273 100.149 19.8086C99.6755 19.5898 99.3063 19.2891 99.042 18.9062C98.7777 18.5234 98.6455 18.111 98.6455 17.6689H100.259C100.282 18.0609 100.43 18.3639 100.703 18.5781C100.977 18.7878 101.339 18.8926 101.79 18.8926C102.228 18.8926 102.56 18.8105 102.788 18.6465C103.016 18.4779 103.13 18.2591 103.13 17.9902Z" fill="white"/>
<defs>
<linearGradient id="paint0_linear" x1="116.766" y1="15" x2="17.7656" y2="15" gradientUnits="userSpaceOnUse">
<stop stop-color="#1D1269"/>
<stop offset="0.270718" stop-color="#EB0255"/>
</linearGradient>
</defs>
</svg>
