<svg width="72" height="71" viewBox="0 0 72 71" fill="none" xmlns="http://www.w3.org/2000/svg">
<path d="M7.78996 25.8544L0.587488 9.50223C0.347594 8.95768 0.484422 8.32053 0.926869 7.92246C1.36932 7.52424 2.01735 7.45548 2.53351 7.75132C11.4176 12.8419 22.4556 12.8419 31.3397 7.75132C36.1336 5.00432 41.5878 3.55241 47.1129 3.55241C51.8601 3.55241 56.5545 4.62526 60.8231 6.66939V3.28799C60.8231 1.61645 62.183 0.256592 63.8545 0.256592H67.9882C69.6598 0.256592 71.0196 1.61645 71.0196 3.28799V69.4277C71.0196 70.1887 70.4026 70.8056 69.6417 70.8056H62.201C61.4401 70.8056 60.8231 70.1887 60.8231 69.4277V61.987C60.8231 61.2259 61.4401 60.6091 62.201 60.6091C62.9619 60.6091 63.5789 61.2259 63.5789 61.987V68.0498H68.2638V44.855H63.5789V50.9638C63.5789 51.7248 62.9619 52.3417 62.201 52.3417C61.4401 52.3417 60.8231 51.7248 60.8231 50.9638V44.4747C52.0628 39.7715 41.3645 39.8971 32.7099 44.8564C27.916 47.6034 22.4618 49.0553 16.9367 49.0553C11.4115 49.0553 5.95734 47.6032 1.16346 44.8564C0.560759 44.5111 0.309427 43.771 0.577017 43.13L7.78996 25.8544ZM67.9882 3.01255H63.8545C63.7025 3.01255 63.5789 3.13615 63.5789 3.28813V7.56889H68.2638V3.28813C68.2638 3.13615 68.1402 3.01255 67.9882 3.01255ZM68.2638 10.3247H63.5789V42.0992H68.2638V10.3247ZM31.3397 42.4653C36.1336 39.7183 41.5878 38.2664 47.1129 38.2664C51.8599 38.2664 56.5545 39.3381 60.8231 41.3821V18.9533C52.0628 14.25 41.3645 14.3758 32.7099 19.3351C32.4938 19.4589 32.2585 19.5177 32.0262 19.5177C31.5483 19.5177 31.0838 19.2689 30.8292 18.8246C30.4509 18.1643 30.6794 17.3224 31.3397 16.944C36.1336 14.1972 41.5878 12.7451 47.1129 12.7451C51.8601 12.7451 56.5545 13.818 60.8231 15.8621V9.75797C52.0628 5.05489 41.3645 5.18317 32.7099 10.1424C27.916 12.8894 22.4618 14.3413 16.9367 14.3413C12.7073 14.3413 8.51888 13.4903 4.63689 11.859L10.5502 25.2845C10.7023 25.6298 10.7062 26.0225 10.5607 26.3709L3.5985 43.0459C12.2882 47.5477 22.8077 47.3541 31.3397 42.4653Z" fill="#87E389"/>
<path d="M62.2016 55.0976C62.564 55.0976 62.9195 55.2451 63.1758 55.5013C63.4321 55.7576 63.5795 56.1131 63.5795 56.4755C63.5795 56.8379 63.4322 57.1934 63.1758 57.4497C62.9193 57.706 62.564 57.8534 62.2016 57.8534C61.8392 57.8534 61.4837 57.706 61.2275 57.4497C60.9713 57.1934 60.8237 56.8379 60.8237 56.4755C60.8237 56.1131 60.9711 55.7576 61.2275 55.5013C61.4837 55.2449 61.8392 55.0976 62.2016 55.0976Z" fill="#87E389"/>
<path d="M27.0137 19.0568C27.3776 19.0568 27.7316 19.2042 27.9879 19.4605C28.2441 19.7168 28.3916 20.0723 28.3916 20.4347C28.3916 20.7971 28.2443 21.1526 27.9879 21.4089C27.7314 21.6652 27.3774 21.8126 27.0137 21.8126C26.6513 21.8126 26.2958 21.6652 26.0396 21.4089C25.7833 21.1526 25.6358 20.7971 25.6358 20.4347C25.6358 20.0723 25.7832 19.7168 26.0396 19.4605C26.2958 19.2042 26.6513 19.0568 27.0137 19.0568Z" fill="#87E389"/>
</svg>
